<svg width="140" height="25" viewBox="0 0 140 25" fill="none" xmlns="http://www.w3.org/2000/svg">
<path d="M17.3068 8.07955C17.0871 7.39015 16.7917 6.77273 16.4205 6.22727C16.0568 5.67424 15.6212 5.20454 15.1136 4.81818C14.6061 4.42424 14.0265 4.125 13.375 3.92045C12.7311 3.71591 12.0227 3.61364 11.25 3.61364C9.93939 3.61364 8.75758 3.95076 7.70455 4.625C6.65152 5.29924 5.81818 6.28788 5.20455 7.59091C4.59848 8.88636 4.29545 10.4735 4.29545 12.3523C4.29545 14.2386 4.60227 15.8333 5.21591 17.1364C5.82955 18.4394 6.67045 19.428 7.73864 20.1023C8.80682 20.7765 10.0227 21.1136 11.3864 21.1136C12.6515 21.1136 13.7538 20.8561 14.6932 20.3409C15.6402 19.8258 16.3712 19.0985 16.8864 18.1591C17.4091 17.2121 17.6705 16.0985 17.6705 14.8182L18.5795 14.9886H11.9205V12.0909H21.0682V14.7386C21.0682 16.6932 20.6515 18.3902 19.8182 19.8295C18.9924 21.2614 17.8485 22.3674 16.3864 23.1477C14.9318 23.928 13.2652 24.3182 11.3864 24.3182C9.2803 24.3182 7.43182 23.8333 5.84091 22.8636C4.25758 21.8939 3.02273 20.5189 2.13636 18.7386C1.25 16.9508 0.806818 14.8295 0.806818 12.375C0.806818 10.5189 1.06439 8.85227 1.57955 7.375C2.0947 5.89773 2.81818 4.64394 3.75 3.61364C4.68939 2.57576 5.79167 1.78409 7.05682 1.23864C8.32955 0.685605 9.7197 0.40909 11.2273 0.40909C12.4848 0.40909 13.6553 0.594696 14.7386 0.965908C15.8295 1.33712 16.7992 1.86364 17.6477 2.54545C18.5038 3.22727 19.2121 4.03788 19.7727 4.97727C20.3333 5.90909 20.7121 6.94318 20.9091 8.07955H17.3068ZM24.7188 19.4545V16.6136L34.7756 0.727272H37.0142V4.90909H35.5938L28.4006 16.2955V16.4773H42.1847V19.4545H24.7188ZM35.7528 24V18.5909L35.7756 17.2955V0.727272H39.1051V24H35.7528ZM53.7841 3.75V0.727272H71.7955V3.75H64.5341V24H61.0341V3.75H53.7841ZM78.2074 24.3864C77.1013 24.3864 76.1013 24.1818 75.2074 23.7727C74.3134 23.3561 73.6051 22.7538 73.0824 21.9659C72.5672 21.178 72.3097 20.2121 72.3097 19.0682C72.3097 18.0833 72.4991 17.2727 72.8778 16.6364C73.2566 16 73.768 15.4962 74.4119 15.125C75.0559 14.7538 75.7756 14.4735 76.571 14.2841C77.3665 14.0947 78.1771 13.9508 79.0028 13.8523C80.0483 13.7311 80.8968 13.6326 81.5483 13.5568C82.1998 13.4735 82.6733 13.3409 82.9688 13.1591C83.2642 12.9773 83.4119 12.6818 83.4119 12.2727V12.1932C83.4119 11.2008 83.1316 10.4318 82.571 9.88636C82.018 9.34091 81.1922 9.06818 80.0938 9.06818C78.9498 9.06818 78.0483 9.32197 77.3892 9.82955C76.7377 10.3295 76.2869 10.8864 76.0369 11.5L72.8438 10.7727C73.2225 9.71212 73.7756 8.85606 74.5028 8.20455C75.2377 7.54545 76.0824 7.06818 77.0369 6.77273C77.9915 6.4697 78.9953 6.31818 80.0483 6.31818C80.7453 6.31818 81.4839 6.40152 82.2642 6.56818C83.0521 6.72727 83.7869 7.02273 84.4688 7.45454C85.1581 7.88636 85.7225 8.50379 86.1619 9.30682C86.6013 10.1023 86.821 11.1364 86.821 12.4091V24H83.5028V21.6136H83.3665C83.1468 22.053 82.8172 22.4848 82.3778 22.9091C81.9384 23.3333 81.3741 23.6856 80.6847 23.9659C79.9953 24.2462 79.1695 24.3864 78.2074 24.3864ZM78.946 21.6591C79.8854 21.6591 80.6884 21.4735 81.3551 21.1023C82.0294 20.7311 82.5407 20.2462 82.8892 19.6477C83.2453 19.0417 83.4233 18.3939 83.4233 17.7045V15.4545C83.3021 15.5758 83.0672 15.6894 82.7188 15.7955C82.3778 15.8939 81.9877 15.9811 81.5483 16.0568C81.1089 16.125 80.6809 16.1894 80.2642 16.25C79.8475 16.303 79.4991 16.3485 79.2188 16.3864C78.5597 16.4697 77.9574 16.6098 77.4119 16.8068C76.8741 17.0038 76.4422 17.2879 76.1165 17.6591C75.7983 18.0227 75.6392 18.5076 75.6392 19.1136C75.6392 19.9545 75.9498 20.5909 76.571 21.0227C77.1922 21.447 77.9839 21.6591 78.946 21.6591ZM104.426 10.8068L101.347 11.3523C101.218 10.9583 101.013 10.5833 100.733 10.2273C100.46 9.87121 100.089 9.57954 99.6193 9.35227C99.1496 9.125 98.5625 9.01136 97.858 9.01136C96.8958 9.01136 96.0928 9.22727 95.4489 9.65909C94.8049 10.0833 94.483 10.6326 94.483 11.3068C94.483 11.8902 94.6989 12.3598 95.1307 12.7159C95.5625 13.072 96.2595 13.3636 97.2216 13.5909L99.9943 14.2273C101.6 14.5985 102.797 15.1705 103.585 15.9432C104.373 16.7159 104.767 17.7197 104.767 18.9545C104.767 20 104.464 20.9318 103.858 21.75C103.259 22.5606 102.422 23.197 101.347 23.6591C100.278 24.1212 99.0398 24.3523 97.6307 24.3523C95.6761 24.3523 94.0814 23.9356 92.8466 23.1023C91.6117 22.2614 90.8542 21.0682 90.5739 19.5227L93.858 19.0227C94.0625 19.8788 94.483 20.5265 95.1193 20.9659C95.7557 21.3977 96.5852 21.6136 97.608 21.6136C98.7216 21.6136 99.6117 21.3826 100.278 20.9205C100.945 20.4508 101.278 19.8788 101.278 19.2045C101.278 18.6591 101.074 18.2008 100.665 17.8295C100.263 17.4583 99.6458 17.178 98.8125 16.9886L95.858 16.3409C94.2292 15.9697 93.0246 15.3788 92.2443 14.5682C91.4716 13.7576 91.0852 12.7311 91.0852 11.4886C91.0852 10.4583 91.3731 9.55682 91.9489 8.78409C92.5246 8.01136 93.3201 7.40909 94.3352 6.97727C95.3504 6.53788 96.5133 6.31818 97.8239 6.31818C99.7102 6.31818 101.195 6.72727 102.278 7.54545C103.362 8.35606 104.078 9.44318 104.426 10.8068ZM111.628 18.0795L111.605 13.9318H112.196L119.151 6.54545H123.219L115.287 14.9545H114.753L111.628 18.0795ZM108.503 24V0.727272H111.901V24H108.503ZM119.526 24L113.276 15.7045L115.616 13.3295L123.696 24H119.526ZM139.395 10.8068L136.315 11.3523C136.187 10.9583 135.982 10.5833 135.702 10.2273C135.429 9.87121 135.058 9.57954 134.588 9.35227C134.118 9.125 133.531 9.01136 132.827 9.01136C131.865 9.01136 131.062 9.22727 130.418 9.65909C129.774 10.0833 129.452 10.6326 129.452 11.3068C129.452 11.8902 129.668 12.3598 130.099 12.7159C130.531 13.072 131.228 13.3636 132.19 13.5909L134.963 14.2273C136.569 14.5985 137.766 15.1705 138.554 15.9432C139.342 16.7159 139.736 17.7197 139.736 18.9545C139.736 20 139.433 20.9318 138.827 21.75C138.228 22.5606 137.391 23.197 136.315 23.6591C135.247 24.1212 134.009 24.3523 132.599 24.3523C130.645 24.3523 129.05 23.9356 127.815 23.1023C126.58 22.2614 125.823 21.0682 125.543 19.5227L128.827 19.0227C129.031 19.8788 129.452 20.5265 130.088 20.9659C130.724 21.3977 131.554 21.6136 132.577 21.6136C133.69 21.6136 134.58 21.3826 135.247 20.9205C135.914 20.4508 136.247 19.8788 136.247 19.2045C136.247 18.6591 136.043 18.2008 135.634 17.8295C135.232 17.4583 134.615 17.178 133.781 16.9886L130.827 16.3409C129.198 15.9697 127.993 15.3788 127.213 14.5682C126.44 13.7576 126.054 12.7311 126.054 11.4886C126.054 10.4583 126.342 9.55682 126.918 8.78409C127.493 8.01136 128.289 7.40909 129.304 6.97727C130.319 6.53788 131.482 6.31818 132.793 6.31818C134.679 6.31818 136.164 6.72727 137.247 7.54545C138.33 8.35606 139.046 9.44318 139.395 10.8068Z" fill="#4C97C5"/>
</svg>
