<svg width="632" height="68" viewBox="0 0 632 68" fill="none" xmlns="http://www.w3.org/2000/svg">
<path d="M1.91761 42V24.5455H8.1392C9.49716 24.5455 10.6222 24.7926 11.5142 25.2869C12.4063 25.7812 13.0739 26.4574 13.517 27.3153C13.9602 28.1676 14.1818 29.1278 14.1818 30.196C14.1818 31.2699 13.9574 32.2358 13.5085 33.0938C13.0653 33.946 12.3949 34.6222 11.4972 35.1222C10.6051 35.6165 9.48295 35.8636 8.13068 35.8636H3.85227V33.6307H7.89205C8.75 33.6307 9.44602 33.483 9.98011 33.1875C10.5142 32.8864 10.9062 32.4773 11.1562 31.9602C11.4062 31.4432 11.5312 30.8551 11.5312 30.196C11.5312 29.5369 11.4062 28.9517 11.1562 28.4403C10.9062 27.929 10.5114 27.5284 9.97159 27.2386C9.4375 26.9489 8.73295 26.804 7.85795 26.804H4.55114V42H1.91761ZM19.6129 24.5455V42H17.0646V24.5455H19.6129ZM26.8509 42.2898C26.0213 42.2898 25.2713 42.1364 24.6009 41.8295C23.9304 41.517 23.3991 41.0653 23.0071 40.4744C22.6207 39.8835 22.4276 39.1591 22.4276 38.3011C22.4276 37.5625 22.5696 36.9545 22.8537 36.4773C23.1378 36 23.5213 35.6222 24.0043 35.3438C24.4872 35.0653 25.027 34.8551 25.6236 34.7131C26.2202 34.571 26.8281 34.4631 27.4474 34.3892C28.2315 34.2983 28.8679 34.2244 29.3565 34.1676C29.8452 34.1051 30.2003 34.0057 30.4219 33.8693C30.6435 33.733 30.7543 33.5114 30.7543 33.2045V33.1449C30.7543 32.4006 30.544 31.8239 30.1236 31.4148C29.7088 31.0057 29.0895 30.8011 28.2656 30.8011C27.4077 30.8011 26.7315 30.9915 26.2372 31.3722C25.7486 31.7472 25.4105 32.1648 25.223 32.625L22.8281 32.0795C23.1122 31.2841 23.527 30.642 24.0724 30.1534C24.6236 29.6591 25.2571 29.3011 25.973 29.0795C26.6889 28.8523 27.4418 28.7386 28.2315 28.7386C28.7543 28.7386 29.3082 28.8011 29.8935 28.9261C30.4844 29.0455 31.0355 29.267 31.5469 29.5909C32.0639 29.9148 32.4872 30.3778 32.8168 30.9801C33.1463 31.5767 33.3111 32.3523 33.3111 33.3068V42H30.8224V40.2102H30.7202C30.5554 40.5398 30.3082 40.8636 29.9787 41.1818C29.6491 41.5 29.2259 41.7642 28.7088 41.9744C28.1918 42.1847 27.5724 42.2898 26.8509 42.2898ZM27.4048 40.2443C28.1094 40.2443 28.7116 40.1051 29.2116 39.8267C29.7173 39.5483 30.1009 39.1847 30.3622 38.7358C30.6293 38.2812 30.7628 37.7955 30.7628 37.2784V35.5909C30.6719 35.6818 30.4957 35.767 30.2344 35.8466C29.9787 35.9205 29.6861 35.9858 29.3565 36.0426C29.027 36.0937 28.706 36.142 28.3935 36.1875C28.081 36.2273 27.8196 36.2614 27.6094 36.2898C27.1151 36.3523 26.6634 36.4574 26.2543 36.6051C25.8509 36.7528 25.527 36.9659 25.2827 37.2443C25.044 37.517 24.9247 37.8807 24.9247 38.3352C24.9247 38.9659 25.1577 39.4432 25.6236 39.767C26.0895 40.0852 26.6832 40.2443 27.4048 40.2443ZM39.2536 34.2273V42H36.7053V28.9091H39.1513V31.0398H39.3132C39.6143 30.3466 40.0859 29.7898 40.728 29.3693C41.3757 28.9489 42.1911 28.7386 43.174 28.7386C44.0661 28.7386 44.8473 28.9261 45.5178 29.3011C46.1882 29.6705 46.7081 30.2216 47.0774 30.9545C47.4467 31.6875 47.6314 32.5937 47.6314 33.6733V42H45.0831V33.9801C45.0831 33.0312 44.8359 32.2898 44.3416 31.7557C43.8473 31.2159 43.1683 30.946 42.3047 30.946C41.7138 30.946 41.1882 31.0739 40.728 31.3295C40.2734 31.5852 39.9126 31.9602 39.6456 32.4545C39.3842 32.9432 39.2536 33.5341 39.2536 34.2273ZM56.5632 42.2642C55.3359 42.2642 54.2649 41.983 53.3501 41.4205C52.4354 40.858 51.7251 40.071 51.2195 39.0597C50.7138 38.0483 50.4609 36.8665 50.4609 35.5142C50.4609 34.1562 50.7138 32.9687 51.2195 31.9517C51.7251 30.9347 52.4354 30.1449 53.3501 29.5824C54.2649 29.0199 55.3359 28.7386 56.5632 28.7386C57.7905 28.7386 58.8615 29.0199 59.7763 29.5824C60.6911 30.1449 61.4013 30.9347 61.907 31.9517C62.4126 32.9687 62.6655 34.1562 62.6655 35.5142C62.6655 36.8665 62.4126 38.0483 61.907 39.0597C61.4013 40.071 60.6911 40.858 59.7763 41.4205C58.8615 41.983 57.7905 42.2642 56.5632 42.2642ZM56.5717 40.125C57.3672 40.125 58.0263 39.9148 58.549 39.4943C59.0717 39.0739 59.4581 38.5142 59.7081 37.8153C59.9638 37.1165 60.0916 36.3466 60.0916 35.5057C60.0916 34.6705 59.9638 33.9034 59.7081 33.2045C59.4581 32.5 59.0717 31.9347 58.549 31.5085C58.0263 31.0824 57.3672 30.8693 56.5717 30.8693C55.7706 30.8693 55.1058 31.0824 54.5774 31.5085C54.0547 31.9347 53.6655 32.5 53.4098 33.2045C53.1598 33.9034 53.0348 34.6705 53.0348 35.5057C53.0348 36.3466 53.1598 37.1165 53.4098 37.8153C53.6655 38.5142 54.0547 39.0739 54.5774 39.4943C55.1058 39.9148 55.7706 40.125 56.5717 40.125ZM75.3196 32.1051L73.0099 32.5142C72.9134 32.2187 72.7599 31.9375 72.5497 31.6705C72.3452 31.4034 72.0668 31.1847 71.7145 31.0142C71.3622 30.8437 70.9219 30.7585 70.3935 30.7585C69.6719 30.7585 69.0696 30.9205 68.5866 31.2443C68.1037 31.5625 67.8622 31.9744 67.8622 32.4801C67.8622 32.9176 68.0241 33.2699 68.348 33.5369C68.6719 33.804 69.1946 34.0227 69.9162 34.1932L71.9957 34.6705C73.2003 34.9489 74.098 35.3778 74.6889 35.9574C75.2798 36.5369 75.5753 37.2898 75.5753 38.2159C75.5753 39 75.348 39.6989 74.8935 40.3125C74.4446 40.9205 73.8168 41.3977 73.0099 41.7443C72.2088 42.0909 71.2798 42.2642 70.223 42.2642C68.7571 42.2642 67.5611 41.9517 66.6349 41.3267C65.7088 40.696 65.1406 39.8011 64.9304 38.642L67.3935 38.267C67.5469 38.9091 67.8622 39.3949 68.3395 39.7244C68.8168 40.0483 69.4389 40.2102 70.206 40.2102C71.0412 40.2102 71.7088 40.0369 72.2088 39.6903C72.7088 39.3381 72.9588 38.9091 72.9588 38.4034C72.9588 37.9943 72.8054 37.6506 72.4986 37.3722C72.1974 37.0937 71.7344 36.8835 71.1094 36.7415L68.8935 36.2557C67.6719 35.9773 66.7685 35.5341 66.1832 34.9261C65.6037 34.3182 65.3139 33.5483 65.3139 32.6165C65.3139 31.8437 65.5298 31.1676 65.9616 30.5881C66.3935 30.0085 66.9901 29.5568 67.7514 29.233C68.5128 28.9034 69.3849 28.7386 70.3679 28.7386C71.7827 28.7386 72.8963 29.0455 73.7088 29.6591C74.5213 30.267 75.0582 31.0824 75.3196 32.1051Z" fill="#4C97C5"/>
<path d="M126.918 42V24.5455H133.139C134.497 24.5455 135.622 24.7926 136.514 25.2869C137.406 25.7812 138.074 26.4574 138.517 27.3153C138.96 28.1676 139.182 29.1278 139.182 30.196C139.182 31.2699 138.957 32.2358 138.509 33.0938C138.065 33.946 137.395 34.6222 136.497 35.1222C135.605 35.6165 134.483 35.8636 133.131 35.8636H128.852V33.6307H132.892C133.75 33.6307 134.446 33.483 134.98 33.1875C135.514 32.8864 135.906 32.4773 136.156 31.9602C136.406 31.4432 136.531 30.8551 136.531 30.196C136.531 29.5369 136.406 28.9517 136.156 28.4403C135.906 27.929 135.511 27.5284 134.972 27.2386C134.438 26.9489 133.733 26.804 132.858 26.804H129.551V42H126.918ZM142.065 42V28.9091H144.528V30.9886H144.664C144.903 30.2841 145.323 29.7301 145.925 29.3267C146.533 28.9176 147.221 28.7131 147.988 28.7131C148.147 28.7131 148.335 28.7187 148.55 28.7301C148.772 28.7415 148.945 28.7557 149.07 28.7727V31.2102C148.968 31.1818 148.786 31.1506 148.525 31.1165C148.263 31.0767 148.002 31.0568 147.741 31.0568C147.138 31.0568 146.602 31.1847 146.13 31.4403C145.664 31.6903 145.295 32.0398 145.022 32.4886C144.749 32.9318 144.613 33.4375 144.613 34.0057V42H142.065ZM156.321 42.2642C155.094 42.2642 154.023 41.983 153.108 41.4205C152.193 40.858 151.483 40.071 150.977 39.0597C150.472 38.0483 150.219 36.8665 150.219 35.5142C150.219 34.1562 150.472 32.9687 150.977 31.9517C151.483 30.9347 152.193 30.1449 153.108 29.5824C154.023 29.0199 155.094 28.7386 156.321 28.7386C157.548 28.7386 158.619 29.0199 159.534 29.5824C160.449 30.1449 161.159 30.9347 161.665 31.9517C162.17 32.9687 162.423 34.1562 162.423 35.5142C162.423 36.8665 162.17 38.0483 161.665 39.0597C161.159 40.071 160.449 40.858 159.534 41.4205C158.619 41.983 157.548 42.2642 156.321 42.2642ZM156.33 40.125C157.125 40.125 157.784 39.9148 158.307 39.4943C158.83 39.0739 159.216 38.5142 159.466 37.8153C159.722 37.1165 159.849 36.3466 159.849 35.5057C159.849 34.6705 159.722 33.9034 159.466 33.2045C159.216 32.5 158.83 31.9347 158.307 31.5085C157.784 31.0824 157.125 30.8693 156.33 30.8693C155.528 30.8693 154.864 31.0824 154.335 31.5085C153.813 31.9347 153.423 32.5 153.168 33.2045C152.918 33.9034 152.793 34.6705 152.793 35.5057C152.793 36.3466 152.918 37.1165 153.168 37.8153C153.423 38.5142 153.813 39.0739 154.335 39.4943C154.864 39.9148 155.528 40.125 156.33 40.125ZM165.268 28.9091H167.816V42.8523C167.816 43.7273 167.657 44.4659 167.339 45.0682C167.026 45.6705 166.56 46.1278 165.941 46.4403C165.327 46.7528 164.569 46.9091 163.665 46.9091C163.575 46.9091 163.489 46.9091 163.41 46.9091C163.325 46.9091 163.237 46.9063 163.146 46.9006V44.7102C163.225 44.7102 163.296 44.7102 163.359 44.7102C163.415 44.7102 163.481 44.7102 163.555 44.7102C164.157 44.7102 164.592 44.5483 164.859 44.2244C165.131 43.9063 165.268 43.4432 165.268 42.8352V28.9091ZM166.529 26.8892C166.086 26.8892 165.705 26.7415 165.387 26.446C165.075 26.1449 164.918 25.7869 164.918 25.3722C164.918 24.9517 165.075 24.5937 165.387 24.2983C165.705 23.9972 166.086 23.8466 166.529 23.8466C166.972 23.8466 167.35 23.9972 167.663 24.2983C167.981 24.5937 168.14 24.9517 168.14 25.3722C168.14 25.7869 167.981 26.1449 167.663 26.446C167.35 26.7415 166.972 26.8892 166.529 26.8892ZM176.886 42.2642C175.597 42.2642 174.486 41.9886 173.554 41.4375C172.628 40.8807 171.912 40.0994 171.406 39.0938C170.906 38.0824 170.656 36.8977 170.656 35.5398C170.656 34.1989 170.906 33.017 171.406 31.9943C171.912 30.9716 172.616 30.1733 173.52 29.5994C174.429 29.0256 175.491 28.7386 176.707 28.7386C177.446 28.7386 178.162 28.8608 178.855 29.1051C179.548 29.3494 180.17 29.733 180.722 30.2557C181.273 30.7784 181.707 31.4574 182.026 32.2926C182.344 33.1222 182.503 34.1307 182.503 35.3182V36.2216H172.097V34.3125H180.006C180.006 33.642 179.869 33.0483 179.597 32.5312C179.324 32.0085 178.94 31.5966 178.446 31.2955C177.957 30.9943 177.384 30.8438 176.724 30.8438C176.009 30.8438 175.384 31.0199 174.849 31.3722C174.321 31.7187 173.912 32.1733 173.622 32.7358C173.338 33.2926 173.196 33.8977 173.196 34.5511V36.0426C173.196 36.9176 173.349 37.6619 173.656 38.2756C173.969 38.8892 174.403 39.358 174.96 39.6818C175.517 40 176.168 40.1591 176.912 40.1591C177.395 40.1591 177.835 40.0909 178.233 39.9545C178.631 39.8125 178.974 39.6023 179.264 39.3239C179.554 39.0455 179.776 38.7017 179.929 38.2926L182.341 38.7273C182.148 39.4375 181.801 40.0597 181.301 40.5938C180.807 41.1222 180.185 41.5341 179.435 41.8295C178.69 42.1193 177.841 42.2642 176.886 42.2642ZM191.441 28.9091V30.9545H184.29V28.9091H191.441ZM186.208 25.7727H188.756V38.1562C188.756 38.6506 188.83 39.0227 188.978 39.2727C189.126 39.517 189.316 39.6847 189.549 39.7756C189.788 39.8608 190.046 39.9034 190.325 39.9034C190.529 39.9034 190.708 39.8892 190.862 39.8608C191.015 39.8324 191.134 39.8097 191.219 39.7926L191.68 41.8977C191.532 41.9545 191.322 42.0114 191.049 42.0682C190.776 42.1307 190.435 42.1648 190.026 42.1705C189.356 42.1818 188.731 42.0625 188.151 41.8125C187.572 41.5625 187.103 41.1761 186.745 40.6534C186.387 40.1307 186.208 39.4744 186.208 38.6847V25.7727ZM199.634 42.2642C198.406 42.2642 197.335 41.983 196.42 41.4205C195.506 40.858 194.795 40.071 194.29 39.0597C193.784 38.0483 193.531 36.8665 193.531 35.5142C193.531 34.1562 193.784 32.9687 194.29 31.9517C194.795 30.9347 195.506 30.1449 196.42 29.5824C197.335 29.0199 198.406 28.7386 199.634 28.7386C200.861 28.7386 201.932 29.0199 202.847 29.5824C203.761 30.1449 204.472 30.9347 204.977 31.9517C205.483 32.9687 205.736 34.1562 205.736 35.5142C205.736 36.8665 205.483 38.0483 204.977 39.0597C204.472 40.071 203.761 40.858 202.847 41.4205C201.932 41.983 200.861 42.2642 199.634 42.2642ZM199.642 40.125C200.438 40.125 201.097 39.9148 201.619 39.4943C202.142 39.0739 202.528 38.5142 202.778 37.8153C203.034 37.1165 203.162 36.3466 203.162 35.5057C203.162 34.6705 203.034 33.9034 202.778 33.2045C202.528 32.5 202.142 31.9347 201.619 31.5085C201.097 31.0824 200.438 30.8693 199.642 30.8693C198.841 30.8693 198.176 31.0824 197.648 31.5085C197.125 31.9347 196.736 32.5 196.48 33.2045C196.23 33.9034 196.105 34.6705 196.105 35.5057C196.105 36.3466 196.23 37.1165 196.48 37.8153C196.736 38.5142 197.125 39.0739 197.648 39.4943C198.176 39.9148 198.841 40.125 199.642 40.125ZM218.39 32.1051L216.08 32.5142C215.984 32.2187 215.83 31.9375 215.62 31.6705C215.415 31.4034 215.137 31.1847 214.785 31.0142C214.433 30.8437 213.992 30.7585 213.464 30.7585C212.742 30.7585 212.14 30.9205 211.657 31.2443C211.174 31.5625 210.933 31.9744 210.933 32.4801C210.933 32.9176 211.094 33.2699 211.418 33.5369C211.742 33.804 212.265 34.0227 212.987 34.1932L215.066 34.6705C216.271 34.9489 217.168 35.3778 217.759 35.9574C218.35 36.5369 218.646 37.2898 218.646 38.2159C218.646 39 218.418 39.6989 217.964 40.3125C217.515 40.9205 216.887 41.3977 216.08 41.7443C215.279 42.0909 214.35 42.2642 213.293 42.2642C211.827 42.2642 210.631 41.9517 209.705 41.3267C208.779 40.696 208.211 39.8011 208.001 38.642L210.464 38.267C210.617 38.9091 210.933 39.3949 211.41 39.7244C211.887 40.0483 212.509 40.2102 213.276 40.2102C214.112 40.2102 214.779 40.0369 215.279 39.6903C215.779 39.3381 216.029 38.9091 216.029 38.4034C216.029 37.9943 215.876 37.6506 215.569 37.3722C215.268 37.0937 214.805 36.8835 214.18 36.7415L211.964 36.2557C210.742 35.9773 209.839 35.5341 209.254 34.9261C208.674 34.3182 208.384 33.5483 208.384 32.6165C208.384 31.8437 208.6 31.1676 209.032 30.5881C209.464 30.0085 210.06 29.5568 210.822 29.233C211.583 28.9034 212.455 28.7386 213.438 28.7386C214.853 28.7386 215.967 29.0455 216.779 29.6591C217.592 30.267 218.129 31.0824 218.39 32.1051Z" fill="#4C97C5"/>
<path d="M269.918 42V24.5455H272.551V39.733H280.46V42H269.918ZM288.774 42.2642C287.547 42.2642 286.476 41.983 285.561 41.4205C284.646 40.858 283.936 40.071 283.43 39.0597C282.925 38.0483 282.672 36.8665 282.672 35.5142C282.672 34.1562 282.925 32.9687 283.43 31.9517C283.936 30.9347 284.646 30.1449 285.561 29.5824C286.476 29.0199 287.547 28.7386 288.774 28.7386C290.001 28.7386 291.072 29.0199 291.987 29.5824C292.902 30.1449 293.612 30.9347 294.118 31.9517C294.624 32.9687 294.876 34.1562 294.876 35.5142C294.876 36.8665 294.624 38.0483 294.118 39.0597C293.612 40.071 292.902 40.858 291.987 41.4205C291.072 41.983 290.001 42.2642 288.774 42.2642ZM288.783 40.125C289.578 40.125 290.237 39.9148 290.76 39.4943C291.283 39.0739 291.669 38.5142 291.919 37.8153C292.175 37.1165 292.303 36.3466 292.303 35.5057C292.303 34.6705 292.175 33.9034 291.919 33.2045C291.669 32.5 291.283 31.9347 290.76 31.5085C290.237 31.0824 289.578 30.8693 288.783 30.8693C287.982 30.8693 287.317 31.0824 286.788 31.5085C286.266 31.9347 285.876 32.5 285.621 33.2045C285.371 33.9034 285.246 34.6705 285.246 35.5057C285.246 36.3466 285.371 37.1165 285.621 37.8153C285.876 38.5142 286.266 39.0739 286.788 39.4943C287.317 39.9148 287.982 40.125 288.783 40.125ZM303.21 47.1818C302.17 47.1818 301.275 47.0455 300.525 46.7727C299.781 46.5 299.173 46.1392 298.701 45.6903C298.229 45.2415 297.877 44.75 297.644 44.2159L299.835 43.3125C299.988 43.5625 300.192 43.8267 300.448 44.1051C300.71 44.3892 301.062 44.6307 301.505 44.8295C301.954 45.0284 302.531 45.1278 303.235 45.1278C304.201 45.1278 304.999 44.892 305.63 44.4205C306.261 43.9545 306.576 43.2102 306.576 42.1875V39.6136H306.414C306.261 39.892 306.039 40.2017 305.749 40.5426C305.465 40.8835 305.073 41.179 304.573 41.429C304.073 41.679 303.423 41.804 302.621 41.804C301.587 41.804 300.656 41.5625 299.826 41.0795C299.002 40.5909 298.349 39.8722 297.866 38.9233C297.388 37.9687 297.15 36.7955 297.15 35.4034C297.15 34.0114 297.386 32.8182 297.857 31.8239C298.335 30.8295 298.988 30.0682 299.817 29.5398C300.647 29.0057 301.587 28.7386 302.638 28.7386C303.451 28.7386 304.107 28.875 304.607 29.1477C305.107 29.4148 305.496 29.7273 305.775 30.0852C306.059 30.4432 306.278 30.7585 306.431 31.0312H306.619V28.9091H309.116V42.2898C309.116 43.4148 308.854 44.3381 308.332 45.0597C307.809 45.7813 307.102 46.3153 306.21 46.6619C305.323 47.0085 304.323 47.1818 303.21 47.1818ZM303.184 39.6903C303.917 39.6903 304.536 39.5199 305.042 39.179C305.553 38.8324 305.94 38.3381 306.201 37.696C306.468 37.0483 306.602 36.2727 306.602 35.3693C306.602 34.4886 306.471 33.7131 306.21 33.0426C305.948 32.3722 305.565 31.8494 305.059 31.4744C304.553 31.0937 303.928 30.9034 303.184 30.9034C302.417 30.9034 301.778 31.1023 301.266 31.5C300.755 31.892 300.369 32.4261 300.107 33.1023C299.852 33.7784 299.724 34.5341 299.724 35.3693C299.724 36.2273 299.854 36.9801 300.116 37.6278C300.377 38.2756 300.763 38.7812 301.275 39.1449C301.792 39.5085 302.428 39.6903 303.184 39.6903ZM312.533 42V28.9091H315.082V42H312.533ZM313.82 26.8892C313.377 26.8892 312.996 26.7415 312.678 26.446C312.366 26.1449 312.21 25.7869 312.21 25.3722C312.21 24.9517 312.366 24.5937 312.678 24.2983C312.996 23.9972 313.377 23.8466 313.82 23.8466C314.263 23.8466 314.641 23.9972 314.954 24.2983C315.272 24.5937 315.431 24.9517 315.431 25.3722C315.431 25.7869 315.272 26.1449 314.954 26.446C314.641 26.7415 314.263 26.8892 313.82 26.8892ZM321.058 34.2273V42H318.51V28.9091H320.956V31.0398H321.118C321.419 30.3466 321.891 29.7898 322.533 29.3693C323.18 28.9489 323.996 28.7386 324.979 28.7386C325.871 28.7386 326.652 28.9261 327.322 29.3011C327.993 29.6705 328.513 30.2216 328.882 30.9545C329.251 31.6875 329.436 32.5937 329.436 33.6733V42H326.888V33.9801C326.888 33.0312 326.641 32.2898 326.146 31.7557C325.652 31.2159 324.973 30.946 324.109 30.946C323.518 30.946 322.993 31.0739 322.533 31.3295C322.078 31.5852 321.717 31.9602 321.45 32.4545C321.189 32.9432 321.058 33.5341 321.058 34.2273Z" fill="#4C97C5"/>
<g filter="url(#filter0_d_1_11293)">
<rect x="380" y="1" width="250" height="64" rx="8" fill="#4C97C5" shape-rendering="crispEdges"/>
<path d="M420.415 30.2216H417.756C417.653 29.6534 417.463 29.1534 417.185 28.7216C416.906 28.2898 416.565 27.9233 416.162 27.6222C415.759 27.321 415.307 27.0937 414.807 26.9403C414.313 26.7869 413.787 26.7102 413.23 26.7102C412.224 26.7102 411.324 26.9631 410.528 27.4688C409.739 27.9744 409.114 28.7159 408.653 29.6932C408.199 30.6705 407.972 31.8636 407.972 33.2727C407.972 34.6932 408.199 35.892 408.653 36.8693C409.114 37.8466 409.741 38.5852 410.537 39.0852C411.332 39.5852 412.227 39.8352 413.222 39.8352C413.773 39.8352 414.295 39.7614 414.79 39.6136C415.29 39.4602 415.741 39.2358 416.145 38.9403C416.548 38.6449 416.889 38.2841 417.168 37.858C417.452 37.4261 417.648 36.9318 417.756 36.375L420.415 36.3835C420.273 37.2415 419.997 38.0312 419.588 38.7528C419.185 39.4688 418.665 40.0881 418.028 40.6108C417.398 41.1278 416.676 41.5284 415.864 41.8125C415.051 42.0966 414.165 42.2386 413.205 42.2386C411.693 42.2386 410.347 41.8807 409.165 41.1648C407.983 40.4432 407.051 39.4119 406.369 38.071C405.693 36.7301 405.355 35.1307 405.355 33.2727C405.355 31.4091 405.696 29.8097 406.378 28.4744C407.06 27.1335 407.991 26.1051 409.173 25.3892C410.355 24.6676 411.699 24.3068 413.205 24.3068C414.131 24.3068 414.994 24.4403 415.795 24.7074C416.602 24.9687 417.327 25.3551 417.969 25.8665C418.611 26.3722 419.142 26.9915 419.562 27.7244C419.983 28.4517 420.267 29.2841 420.415 30.2216ZM428.876 42.2642C427.648 42.2642 426.577 41.983 425.663 41.4205C424.748 40.858 424.038 40.071 423.532 39.0597C423.026 38.0483 422.773 36.8665 422.773 35.5142C422.773 34.1562 423.026 32.9687 423.532 31.9517C424.038 30.9347 424.748 30.1449 425.663 29.5824C426.577 29.0199 427.648 28.7386 428.876 28.7386C430.103 28.7386 431.174 29.0199 432.089 29.5824C433.004 30.1449 433.714 30.9347 434.219 31.9517C434.725 32.9687 434.978 34.1562 434.978 35.5142C434.978 36.8665 434.725 38.0483 434.219 39.0597C433.714 40.071 433.004 40.858 432.089 41.4205C431.174 41.983 430.103 42.2642 428.876 42.2642ZM428.884 40.125C429.68 40.125 430.339 39.9148 430.862 39.4943C431.384 39.0739 431.771 38.5142 432.021 37.8153C432.276 37.1165 432.404 36.3466 432.404 35.5057C432.404 34.6705 432.276 33.9034 432.021 33.2045C431.771 32.5 431.384 31.9347 430.862 31.5085C430.339 31.0824 429.68 30.8693 428.884 30.8693C428.083 30.8693 427.418 31.0824 426.89 31.5085C426.367 31.9347 425.978 32.5 425.722 33.2045C425.472 33.9034 425.347 34.6705 425.347 35.5057C425.347 36.3466 425.472 37.1165 425.722 37.8153C425.978 38.5142 426.367 39.0739 426.89 39.4943C427.418 39.9148 428.083 40.125 428.884 40.125ZM437.822 42V28.9091H440.268V31.0398H440.43C440.703 30.3182 441.149 29.7557 441.768 29.3523C442.388 28.9432 443.129 28.7386 443.993 28.7386C444.868 28.7386 445.601 28.9432 446.192 29.3523C446.788 29.7614 447.229 30.3239 447.513 31.0398H447.649C447.962 30.3409 448.459 29.7841 449.141 29.3693C449.822 28.9489 450.635 28.7386 451.578 28.7386C452.766 28.7386 453.734 29.1108 454.484 29.8551C455.24 30.5994 455.618 31.7216 455.618 33.2216V42H453.07V33.4602C453.07 32.5739 452.828 31.9318 452.345 31.5341C451.862 31.1364 451.286 30.9375 450.615 30.9375C449.786 30.9375 449.141 31.1932 448.68 31.7045C448.22 32.2102 447.99 32.8608 447.99 33.6562V42H445.45V33.2983C445.45 32.5881 445.229 32.017 444.786 31.5852C444.342 31.1534 443.766 30.9375 443.055 30.9375C442.572 30.9375 442.126 31.0653 441.717 31.321C441.314 31.571 440.987 31.9205 440.737 32.3693C440.493 32.8182 440.371 33.3381 440.371 33.929V42H437.822ZM464.675 42.2642C463.386 42.2642 462.275 41.9886 461.343 41.4375C460.417 40.8807 459.701 40.0994 459.195 39.0938C458.695 38.0824 458.445 36.8977 458.445 35.5398C458.445 34.1989 458.695 33.017 459.195 31.9943C459.701 30.9716 460.406 30.1733 461.309 29.5994C462.218 29.0256 463.281 28.7386 464.496 28.7386C465.235 28.7386 465.951 28.8608 466.644 29.1051C467.337 29.3494 467.96 29.733 468.511 30.2557C469.062 30.7784 469.496 31.4574 469.815 32.2926C470.133 33.1222 470.292 34.1307 470.292 35.3182V36.2216H459.886V34.3125H467.795C467.795 33.642 467.658 33.0483 467.386 32.5312C467.113 32.0085 466.729 31.5966 466.235 31.2955C465.746 30.9943 465.173 30.8438 464.513 30.8438C463.798 30.8438 463.173 31.0199 462.638 31.3722C462.11 31.7187 461.701 32.1733 461.411 32.7358C461.127 33.2926 460.985 33.8977 460.985 34.5511V36.0426C460.985 36.9176 461.138 37.6619 461.445 38.2756C461.758 38.8892 462.192 39.358 462.749 39.6818C463.306 40 463.957 40.1591 464.701 40.1591C465.184 40.1591 465.624 40.0909 466.022 39.9545C466.42 39.8125 466.763 39.6023 467.053 39.3239C467.343 39.0455 467.565 38.7017 467.718 38.2926L470.13 38.7273C469.937 39.4375 469.59 40.0597 469.09 40.5938C468.596 41.1222 467.974 41.5341 467.224 41.8295C466.479 42.1193 465.63 42.2642 464.675 42.2642ZM478.634 42.2642C477.366 42.2642 476.276 41.9773 475.361 41.4034C474.452 40.8239 473.753 40.0256 473.264 39.0085C472.776 37.9915 472.531 36.8267 472.531 35.5142C472.531 34.1847 472.781 33.0114 473.281 31.9943C473.781 30.9716 474.486 30.1733 475.395 29.5994C476.304 29.0256 477.375 28.7386 478.608 28.7386C479.602 28.7386 480.489 28.9233 481.267 29.2926C482.045 29.6562 482.673 30.1676 483.151 30.8267C483.634 31.4858 483.92 32.2557 484.011 33.1364H481.531C481.395 32.5227 481.082 31.9943 480.594 31.5511C480.111 31.108 479.463 30.8864 478.651 30.8864C477.94 30.8864 477.318 31.0739 476.784 31.4489C476.256 31.8182 475.844 32.3466 475.548 33.0341C475.253 33.7159 475.105 34.5227 475.105 35.4545C475.105 36.4091 475.25 37.233 475.54 37.9261C475.83 38.6193 476.239 39.1562 476.767 39.5369C477.301 39.9176 477.929 40.108 478.651 40.108C479.134 40.108 479.571 40.0199 479.963 39.8438C480.361 39.6619 480.693 39.4034 480.96 39.0682C481.233 38.733 481.423 38.3295 481.531 37.858H484.011C483.92 38.7045 483.645 39.4602 483.185 40.125C482.724 40.7898 482.108 41.3125 481.335 41.6932C480.568 42.0739 479.668 42.2642 478.634 42.2642ZM477.713 41.9318H479.384L479.247 42.6307C479.741 42.7102 480.173 42.9091 480.543 43.2273C480.912 43.5455 481.097 44.0256 481.097 44.6676C481.102 45.4347 480.77 46.0568 480.099 46.5341C479.435 47.0114 478.472 47.25 477.21 47.25L477.159 45.8267C477.75 45.8267 478.227 45.7415 478.591 45.571C478.96 45.4006 479.148 45.125 479.153 44.7443C479.159 44.3636 479.017 44.0966 478.727 43.9432C478.443 43.7898 477.989 43.6818 477.364 43.6193L477.713 41.9318ZM492.379 42.2642C491.089 42.2642 489.978 41.9886 489.046 41.4375C488.12 40.8807 487.404 40.0994 486.898 39.0938C486.398 38.0824 486.148 36.8977 486.148 35.5398C486.148 34.1989 486.398 33.017 486.898 31.9943C487.404 30.9716 488.109 30.1733 489.012 29.5994C489.921 29.0256 490.984 28.7386 492.2 28.7386C492.938 28.7386 493.654 28.8608 494.347 29.1051C495.04 29.3494 495.663 29.733 496.214 30.2557C496.765 30.7784 497.2 31.4574 497.518 32.2926C497.836 33.1222 497.995 34.1307 497.995 35.3182V36.2216H487.589V34.3125H495.498C495.498 33.642 495.362 33.0483 495.089 32.5312C494.816 32.0085 494.433 31.5966 493.938 31.2955C493.45 30.9943 492.876 30.8438 492.217 30.8438C491.501 30.8438 490.876 31.0199 490.342 31.3722C489.813 31.7187 489.404 32.1733 489.114 32.7358C488.83 33.2926 488.688 33.8977 488.688 34.5511V36.0426C488.688 36.9176 488.842 37.6619 489.148 38.2756C489.461 38.8892 489.896 39.358 490.452 39.6818C491.009 40 491.66 40.1591 492.404 40.1591C492.887 40.1591 493.327 40.0909 493.725 39.9545C494.123 39.8125 494.467 39.6023 494.756 39.3239C495.046 39.0455 495.268 38.7017 495.421 38.2926L497.833 38.7273C497.64 39.4375 497.293 40.0597 496.793 40.5938C496.299 41.1222 495.677 41.5341 494.927 41.8295C494.183 42.1193 493.333 42.2642 492.379 42.2642ZM512.075 42.2557C511.018 42.2557 510.075 41.9858 509.245 41.446C508.421 40.9006 507.773 40.125 507.302 39.1193C506.836 38.108 506.603 36.8949 506.603 35.4801C506.603 34.0653 506.839 32.8551 507.31 31.8494C507.788 30.8437 508.441 30.0739 509.271 29.5398C510.1 29.0057 511.04 28.7386 512.092 28.7386C512.904 28.7386 513.558 28.875 514.052 29.1477C514.552 29.4148 514.938 29.7273 515.211 30.0852C515.489 30.4432 515.705 30.7585 515.859 31.0312H516.012V24.5455H518.56V42H516.072V39.9631H515.859C515.705 40.2415 515.484 40.5597 515.194 40.9176C514.91 41.2756 514.518 41.5881 514.018 41.8551C513.518 42.1222 512.87 42.2557 512.075 42.2557ZM512.637 40.0824C513.37 40.0824 513.989 39.8892 514.495 39.5028C515.006 39.1108 515.393 38.5682 515.654 37.875C515.921 37.1818 516.055 36.375 516.055 35.4545C516.055 34.5455 515.924 33.75 515.663 33.0682C515.401 32.3864 515.018 31.8551 514.512 31.4744C514.006 31.0937 513.381 30.9034 512.637 30.9034C511.87 30.9034 511.231 31.1023 510.719 31.5C510.208 31.8977 509.822 32.4403 509.56 33.1278C509.305 33.8153 509.177 34.5909 509.177 35.4545C509.177 36.3295 509.308 37.1165 509.569 37.8153C509.83 38.5142 510.217 39.0682 510.728 39.4773C511.245 39.8807 511.881 40.0824 512.637 40.0824ZM527.839 42.2642C526.55 42.2642 525.439 41.9886 524.507 41.4375C523.581 40.8807 522.865 40.0994 522.359 39.0938C521.859 38.0824 521.609 36.8977 521.609 35.5398C521.609 34.1989 521.859 33.017 522.359 31.9943C522.865 30.9716 523.57 30.1733 524.473 29.5994C525.382 29.0256 526.445 28.7386 527.661 28.7386C528.399 28.7386 529.115 28.8608 529.808 29.1051C530.501 29.3494 531.124 29.733 531.675 30.2557C532.226 30.7784 532.661 31.4574 532.979 32.2926C533.297 33.1222 533.456 34.1307 533.456 35.3182V36.2216H523.05V34.3125H530.959C530.959 33.642 530.822 33.0483 530.55 32.5312C530.277 32.0085 529.893 31.5966 529.399 31.2955C528.911 30.9943 528.337 30.8438 527.678 30.8438C526.962 30.8438 526.337 31.0199 525.803 31.3722C525.274 31.7187 524.865 32.1733 524.575 32.7358C524.291 33.2926 524.149 33.8977 524.149 34.5511V36.0426C524.149 36.9176 524.303 37.6619 524.609 38.2756C524.922 38.8892 525.357 39.358 525.913 39.6818C526.47 40 527.121 40.1591 527.865 40.1591C528.348 40.1591 528.788 40.0909 529.186 39.9545C529.584 39.8125 529.928 39.6023 530.217 39.3239C530.507 39.0455 530.729 38.7017 530.882 38.2926L533.294 38.7273C533.101 39.4375 532.754 40.0597 532.254 40.5938C531.76 41.1222 531.138 41.5341 530.388 41.8295C529.643 42.1193 528.794 42.2642 527.839 42.2642ZM548.124 47.1818C547.084 47.1818 546.189 47.0455 545.439 46.7727C544.695 46.5 544.087 46.1392 543.615 45.6903C543.143 45.2415 542.791 44.75 542.558 44.2159L544.749 43.3125C544.902 43.5625 545.107 43.8267 545.362 44.1051C545.624 44.3892 545.976 44.6307 546.419 44.8295C546.868 45.0284 547.445 45.1278 548.149 45.1278C549.115 45.1278 549.913 44.892 550.544 44.4205C551.175 43.9545 551.49 43.2102 551.49 42.1875V39.6136H551.328C551.175 39.892 550.953 40.2017 550.663 40.5426C550.379 40.8835 549.987 41.179 549.487 41.429C548.987 41.679 548.337 41.804 547.536 41.804C546.501 41.804 545.57 41.5625 544.74 41.0795C543.916 40.5909 543.263 39.8722 542.78 38.9233C542.303 37.9687 542.064 36.7955 542.064 35.4034C542.064 34.0114 542.3 32.8182 542.771 31.8239C543.249 30.8295 543.902 30.0682 544.732 29.5398C545.561 29.0057 546.501 28.7386 547.553 28.7386C548.365 28.7386 549.021 28.875 549.521 29.1477C550.021 29.4148 550.411 29.7273 550.689 30.0852C550.973 30.4432 551.192 30.7585 551.345 31.0312H551.533V28.9091H554.03V42.2898C554.03 43.4148 553.768 44.3381 553.246 45.0597C552.723 45.7813 552.016 46.3153 551.124 46.6619C550.237 47.0085 549.237 47.1818 548.124 47.1818ZM548.098 39.6903C548.831 39.6903 549.45 39.5199 549.956 39.179C550.467 38.8324 550.854 38.3381 551.115 37.696C551.382 37.0483 551.516 36.2727 551.516 35.3693C551.516 34.4886 551.385 33.7131 551.124 33.0426C550.862 32.3722 550.479 31.8494 549.973 31.4744C549.467 31.0937 548.842 30.9034 548.098 30.9034C547.331 30.9034 546.692 31.1023 546.18 31.5C545.669 31.892 545.283 32.4261 545.021 33.1023C544.766 33.7784 544.638 34.5341 544.638 35.3693C544.638 36.2273 544.768 36.9801 545.03 37.6278C545.291 38.2756 545.678 38.7812 546.189 39.1449C546.706 39.5085 547.342 39.6903 548.098 39.6903ZM557.447 42V28.9091H559.911V30.9886H560.047C560.286 30.2841 560.706 29.7301 561.308 29.3267C561.916 28.9176 562.604 28.7131 563.371 28.7131C563.53 28.7131 563.717 28.7187 563.933 28.7301C564.155 28.7415 564.328 28.7557 564.453 28.7727V31.2102C564.351 31.1818 564.169 31.1506 563.908 31.1165C563.646 31.0767 563.385 31.0568 563.124 31.0568C562.521 31.0568 561.984 31.1847 561.513 31.4403C561.047 31.6903 560.678 32.0398 560.405 32.4886C560.132 32.9318 559.996 33.4375 559.996 34.0057V42H557.447ZM570.351 42.2898C569.521 42.2898 568.771 42.1364 568.101 41.8295C567.43 41.517 566.899 41.0653 566.507 40.4744C566.121 39.8835 565.928 39.1591 565.928 38.3011C565.928 37.5625 566.07 36.9545 566.354 36.4773C566.638 36 567.021 35.6222 567.504 35.3438C567.987 35.0653 568.527 34.8551 569.124 34.7131C569.72 34.571 570.328 34.4631 570.947 34.3892C571.732 34.2983 572.368 34.2244 572.857 34.1676C573.345 34.1051 573.7 34.0057 573.922 33.8693C574.143 33.733 574.254 33.5114 574.254 33.2045V33.1449C574.254 32.4006 574.044 31.8239 573.624 31.4148C573.209 31.0057 572.589 30.8011 571.766 30.8011C570.908 30.8011 570.232 30.9915 569.737 31.3722C569.249 31.7472 568.911 32.1648 568.723 32.625L566.328 32.0795C566.612 31.2841 567.027 30.642 567.572 30.1534C568.124 29.6591 568.757 29.3011 569.473 29.0795C570.189 28.8523 570.942 28.7386 571.732 28.7386C572.254 28.7386 572.808 28.8011 573.393 28.9261C573.984 29.0455 574.536 29.267 575.047 29.5909C575.564 29.9148 575.987 30.3778 576.317 30.9801C576.646 31.5767 576.811 32.3523 576.811 33.3068V42H574.322V40.2102H574.22C574.055 40.5398 573.808 40.8636 573.479 41.1818C573.149 41.5 572.726 41.7642 572.209 41.9744C571.692 42.1847 571.072 42.2898 570.351 42.2898ZM570.905 40.2443C571.609 40.2443 572.212 40.1051 572.712 39.8267C573.217 39.5483 573.601 39.1847 573.862 38.7358C574.129 38.2812 574.263 37.7955 574.263 37.2784V35.5909C574.172 35.6818 573.996 35.767 573.734 35.8466C573.479 35.9205 573.186 35.9858 572.857 36.0426C572.527 36.0937 572.206 36.142 571.893 36.1875C571.581 36.2273 571.32 36.2614 571.109 36.2898C570.615 36.3523 570.163 36.4574 569.754 36.6051C569.351 36.7528 569.027 36.9659 568.783 37.2443C568.544 37.517 568.425 37.8807 568.425 38.3352C568.425 38.9659 568.658 39.4432 569.124 39.767C569.589 40.0852 570.183 40.2443 570.905 40.2443ZM585.719 42.2642C584.452 42.2642 583.362 41.9773 582.447 41.4034C581.538 40.8239 580.839 40.0256 580.35 39.0085C579.862 37.9915 579.617 36.8267 579.617 35.5142C579.617 34.1847 579.867 33.0114 580.367 31.9943C580.867 30.9716 581.572 30.1733 582.481 29.5994C583.39 29.0256 584.461 28.7386 585.694 28.7386C586.688 28.7386 587.575 28.9233 588.353 29.2926C589.131 29.6562 589.759 30.1676 590.237 30.8267C590.719 31.4858 591.006 32.2557 591.097 33.1364H588.617C588.481 32.5227 588.168 31.9943 587.68 31.5511C587.197 31.108 586.549 30.8864 585.737 30.8864C585.026 30.8864 584.404 31.0739 583.87 31.4489C583.342 31.8182 582.93 32.3466 582.634 33.0341C582.339 33.7159 582.191 34.5227 582.191 35.4545C582.191 36.4091 582.336 37.233 582.626 37.9261C582.915 38.6193 583.325 39.1562 583.853 39.5369C584.387 39.9176 585.015 40.108 585.737 40.108C586.219 40.108 586.657 40.0199 587.049 39.8438C587.447 39.6619 587.779 39.4034 588.046 39.0682C588.319 38.733 588.509 38.3295 588.617 37.858H591.097C591.006 38.7045 590.731 39.4602 590.271 40.125C589.81 40.7898 589.194 41.3125 588.421 41.6932C587.654 42.0739 586.754 42.2642 585.719 42.2642ZM584.799 41.9318H586.469L586.333 42.6307C586.827 42.7102 587.259 42.9091 587.629 43.2273C587.998 43.5455 588.183 44.0256 588.183 44.6676C588.188 45.4347 587.856 46.0568 587.185 46.5341C586.521 47.0114 585.558 47.25 584.296 47.25L584.245 45.8267C584.836 45.8267 585.313 45.7415 585.677 45.571C586.046 45.4006 586.234 45.125 586.239 44.7443C586.245 44.3636 586.103 44.0966 585.813 43.9432C585.529 43.7898 585.075 43.6818 584.45 43.6193L584.799 41.9318ZM597.632 42.2898C596.803 42.2898 596.053 42.1364 595.382 41.8295C594.712 41.517 594.18 41.0653 593.788 40.4744C593.402 39.8835 593.209 39.1591 593.209 38.3011C593.209 37.5625 593.351 36.9545 593.635 36.4773C593.919 36 594.303 35.6222 594.786 35.3438C595.268 35.0653 595.808 34.8551 596.405 34.7131C597.001 34.571 597.609 34.4631 598.229 34.3892C599.013 34.2983 599.649 34.2244 600.138 34.1676C600.626 34.1051 600.982 34.0057 601.203 33.8693C601.425 33.733 601.536 33.5114 601.536 33.2045V33.1449C601.536 32.4006 601.325 31.8239 600.905 31.4148C600.49 31.0057 599.871 30.8011 599.047 30.8011C598.189 30.8011 597.513 30.9915 597.018 31.3722C596.53 31.7472 596.192 32.1648 596.004 32.625L593.609 32.0795C593.893 31.2841 594.308 30.642 594.854 30.1534C595.405 29.6591 596.038 29.3011 596.754 29.0795C597.47 28.8523 598.223 28.7386 599.013 28.7386C599.536 28.7386 600.089 28.8011 600.675 28.9261C601.266 29.0455 601.817 29.267 602.328 29.5909C602.845 29.9148 603.268 30.3778 603.598 30.9801C603.928 31.5767 604.092 32.3523 604.092 33.3068V42H601.604V40.2102H601.501C601.337 40.5398 601.089 40.8636 600.76 41.1818C600.43 41.5 600.007 41.7642 599.49 41.9744C598.973 42.1847 598.354 42.2898 597.632 42.2898ZM598.186 40.2443C598.891 40.2443 599.493 40.1051 599.993 39.8267C600.499 39.5483 600.882 39.1847 601.143 38.7358C601.411 38.2812 601.544 37.7955 601.544 37.2784V35.5909C601.453 35.6818 601.277 35.767 601.016 35.8466C600.76 35.9205 600.467 35.9858 600.138 36.0426C599.808 36.0937 599.487 36.142 599.175 36.1875C598.862 36.2273 598.601 36.2614 598.391 36.2898C597.896 36.3523 597.445 36.4574 597.036 36.6051C596.632 36.7528 596.308 36.9659 596.064 37.2443C595.825 37.517 595.706 37.8807 595.706 38.3352C595.706 38.9659 595.939 39.4432 596.405 39.767C596.871 40.0852 597.464 40.2443 598.186 40.2443Z" fill="black"/>
</g>
<defs>
<filter id="filter0_d_1_11293" x="378" y="0" width="254" height="68" filterUnits="userSpaceOnUse" color-interpolation-filters="sRGB">
<feFlood flood-opacity="0" result="BackgroundImageFix"/>
<feColorMatrix in="SourceAlpha" type="matrix" values="0 0 0 0 0 0 0 0 0 0 0 0 0 0 0 0 0 0 127 0" result="hardAlpha"/>
<feOffset dy="1"/>
<feGaussianBlur stdDeviation="1"/>
<feComposite in2="hardAlpha" operator="out"/>
<feColorMatrix type="matrix" values="0 0 0 0 0 0 0 0 0 0 0 0 0 0 0 0 0 0 0.05 0"/>
<feBlend mode="normal" in2="BackgroundImageFix" result="effect1_dropShadow_1_11293"/>
<feBlend mode="normal" in="SourceGraphic" in2="effect1_dropShadow_1_11293" result="shape"/>
</filter>
</defs>
</svg>
